<?xml version="1.0" standalone="no"?>
<!DOCTYPE svg PUBLIC "-//W3C//DTD SVG 20010904//EN"
 "http://www.w3.org/TR/2001/REC-SVG-20010904/DTD/svg10.dtd">
<svg version="1.0" xmlns="http://www.w3.org/2000/svg"
 width="512.000000pt" height="512.000000pt" viewBox="-150 -150 800.000000 800.000000"
 preserveAspectRatio="xMidYMid meet">

<g transform="translate(0.000000,512.000000) scale(0.100000,-0.100000)"
fill="#000000" stroke="none">
<path d="M1375 4786 c-73 -33 -95 -83 -95 -212 l0 -94 -268 0 c-208 0 -281 -3
-327 -15 -172 -45 -305 -179 -350 -352 -23 -86 -23 -2860 0 -2946 45 -173 178
-307 350 -352 51 -13 196 -15 1070 -16 l1010 0 50 -66 c143 -188 403 -343 660
-394 88 -17 329 -18 410 0 466 99 796 429 897 896 16 78 16 332 0 410 -58 267
-209 520 -395 660 l-66 50 -1 850 c0 924 1 904 -56 1017 -36 71 -123 159 -193
197 -104 55 -147 61 -442 61 l-267 0 -4 109 c-2 92 -6 114 -24 137 -39 53 -71
69 -134 69 -63 0 -95 -16 -134 -69 -18 -23 -22 -45 -24 -137 l-4 -109 -718 0
-718 0 -4 109 c-3 118 -12 141 -70 184 -34 25 -113 32 -153 13z m-95 -687 c0
-110 64 -183 160 -183 96 0 160 75 160 187 l0 57 720 0 720 0 0 -61 c0 -110
64 -183 160 -183 96 0 160 75 160 188 l0 57 269 -3 c254 -3 271 -4 297 -24 15
-11 37 -33 48 -48 20 -26 21 -43 24 -297 l3 -269 -1681 0 -1680 0 0 254 c0
264 4 292 43 335 43 47 65 50 340 51 l257 0 0 -61z m2720 -1243 l0 -344 -52
14 c-108 28 -260 39 -377 26 -539 -60 -943 -464 -1003 -1003 -13 -117 -2 -269
26 -377 l14 -52 -933 2 c-925 3 -934 3 -961 24 -15 11 -37 33 -48 48 -21 27
-21 35 -24 1017 l-2 989 1680 0 1680 0 0 -344z m-130 -639 c208 -57 368 -171
480 -343 204 -312 161 -728 -102 -994 -360 -364 -958 -303 -1238 127 -89 136
-125 259 -125 433 0 174 36 297 124 432 119 182 304 308 521 354 80 17 262 12
340 -9z"/>
<path d="M1215 2706 c-97 -43 -124 -171 -54 -251 45 -51 78 -57 301 -53 215 3
223 5 272 72 29 39 29 133 0 172 -50 67 -55 69 -282 71 -157 2 -214 0 -237
-11z"/>
<path d="M2175 2706 c-97 -43 -124 -171 -54 -251 45 -51 78 -57 301 -53 215 3
223 5 272 72 29 39 29 133 0 172 -50 67 -55 69 -282 71 -157 2 -214 0 -237
-11z"/>
<path d="M1215 1906 c-97 -43 -124 -171 -54 -251 45 -51 78 -57 301 -53 215 3
223 5 272 72 29 39 29 133 0 172 -50 67 -55 69 -282 71 -157 2 -214 0 -237
-11z"/>
<path d="M3615 2066 c-37 -17 -70 -52 -84 -89 -7 -18 -11 -131 -11 -297 0
-278 3 -305 43 -349 34 -36 392 -211 433 -211 136 0 213 158 127 260 -16 19
-76 56 -154 95 l-128 65 -3 219 c-3 240 -4 245 -70 294 -34 25 -113 32 -153
13z"/>
</g>
</svg>
